<?xml version="1.0" encoding="utf-8"?>
<!-- Generator: Adobe Illustrator 26.0.1, SVG Export Plug-In . SVG Version: 6.00 Build 0)  -->
<svg version="1.1" id="Layer_1" xmlns="http://www.w3.org/2000/svg" xmlns:xlink="http://www.w3.org/1999/xlink" x="0px" y="0px"
	 viewBox="0 0 1774 376" style="enable-background:new 0 0 1774 376;" xml:space="preserve">
<style type="text/css">
	.st0{fill:#333333;}
	.st1{fill:#F7931E;}
	.st2{fill:#F16334;}
	.st3{stroke:#000000;stroke-width:2.6101;stroke-linecap:round;stroke-linejoin:round;stroke-miterlimit:10;}
</style>
<g>
	<g>
		<path class="st0" d="M74.1,255.9c-15,15-15,39.5,0,54.5c15,15,39.5,15,54.5,0c15-15,15-39.5,0-54.5
			C113.5,240.9,89.1,240.9,74.1,255.9z"/>
		<path class="st0" d="M78.5,169.7c-2.4-9.1,0.2-18.7,6.8-25.4l68-68c6.6-6.6,16.3-9.2,25.4-6.8l63.6,17c0.7-8.5,3.6-16.9,8.8-24.2
			l-76.6-20.5c-11.2-3-23.1,0.2-31.3,8.4l-83.9,83.9c-8.2,8.2-11.4,20.1-8.4,31.3L72.2,245c7.1-5.5,15.5-8.6,24-9.6L78.5,169.7z"/>
		<path class="st0" d="M296.8,137.9l18.2,68c2.4,9.1-0.2,18.7-6.8,25.4l-68,68c-6.6,6.6-16.3,9.2-25.4,6.8l-65.8-17.6
			c-0.9,8.5-4.1,16.8-9.6,24l79.5,21.3c11.2,3,23.1-0.2,31.3-8.4l83.9-83.9c8.2-8.2,11.4-20.1,8.4-31.3l-22.1-82.5
			C313.5,133.2,305.3,136.7,296.8,137.9z"/>
		<path class="st0" d="M263,63.1c-15,15-15,39.5,0,54.5c15,15,39.5,15,54.5,0c15-15,15-39.5,0-54.5C302.4,48,278,48,263,63.1z"/>
	</g>
	<path class="st1" d="M256.2,124.3c-7.7-7.7-12.2-17.3-13.6-27.3l-62.3-16.7c-8.2-2.2-17,0.1-23.1,6.2l-61.8,61.8
		c-6,6-8.4,14.8-6.2,23.1l17.2,64.1c10.5,1.1,20.8,5.7,28.8,13.8c8.1,8.1,12.6,18.3,13.8,28.8l64.1,17.2c8.2,2.2,17-0.1,23.1-6.2
		l61.8-61.8c6-6,8.4-14.8,6.2-23.1l-17.7-66C275.5,137.4,264.7,132.7,256.2,124.3z"/>
</g>
<g>
	<path class="st0" d="M440.4,83.9h76.2v18.8H459V137h57.7v18.6H459v47.3h57.7v18.6h-76.2V83.9z"/>
	<path class="st0" d="M612,132.4h18.8v89.1H612v-17.7c-9.1,13.5-20.5,20.2-34,20.2c-11.7,0-21.8-4.6-30.1-13.8
		c-8.3-9.2-12.5-20.4-12.5-33.6c0-12.5,4.2-23.3,12.6-32.7c8.4-9.3,18.2-14,29.5-14c7,0,13.6,1.9,19.9,5.7
		c6.3,3.8,11.1,8.8,14.6,14.9V132.4z M614.6,177.2c0-8.1-2.9-15.1-8.8-20.9c-5.8-5.8-12.8-8.7-21-8.7c-7.9,0-14.9,2.9-20.8,8.6
		c-5.9,5.8-8.9,12.5-8.9,20.3c0,8.4,2.9,15.6,8.7,21.5c5.8,5.9,12.8,8.9,21,8.9c8.1,0,15.1-2.9,21-8.8
		C611.7,192.2,614.6,185.3,614.6,177.2z"/>
	<path class="st0" d="M712.7,143l-12.5,11c-3.2-2.3-6-4-8.4-5.2s-5.2-1.8-8.4-1.8c-7.6,0-11.4,2.8-11.4,8.4c0,4,4.8,7.9,14.5,11.7
		c9.7,3.8,16.6,8,20.9,12.5c4.2,4.5,6.4,10,6.4,16.4c0,7.5-3.1,14-9.2,19.6c-6.1,5.6-13.3,8.4-21.6,8.4c-12.6,0-22.9-5.8-31-17.5
		l14.8-7.1c5.2,5,10.6,7.6,16.2,7.6c3.9,0,7.3-1.1,10.2-3.2c2.9-2.1,4.4-4.6,4.4-7.4c0-5-5.1-9.4-15.3-13.4c-10.2-4-17.3-8-21.2-12
		c-3.9-4.1-5.9-9.1-5.9-15.1c0-7.4,2.8-13.6,8.4-18.5c5.6-4.9,12.6-7.4,21-7.4C692.9,129.9,702.3,134.3,712.7,143z"/>
	<path class="st0" d="M821.6,180.5h-76c1.7,9.1,5.4,15.8,11.3,20c5.9,4.2,12.3,6.3,19.2,6.3c10.7,0,19.6-4.4,26.8-13.3l13.7,10.4
		c-10.3,13.3-24.1,20-41.4,20c-13.2,0-24.3-4.5-33.3-13.6c-8.9-9.1-13.4-20.3-13.4-33.8c0-12.6,4.5-23.5,13.6-32.8
		c9-9.2,20.1-13.9,33.1-13.9c12.8,0,23.8,4.7,32.9,14.1C817.2,153.4,821.7,165.6,821.6,180.5z M747.5,165.5h54.4
		c-6-12.2-15-18.4-26.8-18.4C762.2,147.2,753,153.3,747.5,165.5z"/>
	<path class="st0" d="M958.5,78.2l37.6,143.3h-18.4L955,133.9l-39.2,92.8l-39.3-93.6l-23.1,88.3h-18.3l37.6-143.3l43.1,102.5
		L958.5,78.2z"/>
	<path class="st0" d="M1007.9,132.4h21.3l32.3,48.4l22.3-48.4h19.4l-60.2,130.9h-19.6l29.4-63.7L1007.9,132.4z"/>
	<path class="st2" d="M1120.3,151.9c0-19.9,7.5-36.9,22.5-51c15-14.2,33-21.3,54-21.3c20.5,0,38.2,7.1,53,21.4
		c14.8,14.3,22.2,31.2,22.2,50.9c0,20.8-7.3,38.4-22,52.7c-14.6,14.4-32.6,21.5-53.9,21.5c-21,0-38.9-7.2-53.7-21.7
		C1127.7,190,1120.3,172.4,1120.3,151.9z M1252,152.7c0-15.2-5.5-28-16.4-38.3c-10.9-10.4-24.4-15.6-40.4-15.6
		c-15.2,0-28.2,5.3-39,15.9c-10.8,10.6-16.2,23.3-16.2,38.1c0,15,5.6,27.7,16.7,38.1s24.7,15.6,40.9,15.6c14.8,0,27.6-5.3,38.4-15.9
		C1246.7,179.9,1252,167.3,1252,152.7z"/>
	<path class="st2" d="M1315.6,132.4v18.4c4.2-7.3,8.3-12.6,12.3-15.9c4-3.3,9.2-4.9,15.6-4.9c1.8,0,4.4,0.4,7.8,1.3l-5.7,18.8
		c-3.6-0.7-6-1.1-7.1-1.1c-6.3,0-11.6,2.2-15.9,6.6c-4.3,4.4-6.4,10-6.4,16.6v49.3h-18.8v-89.1H1315.6z"/>
	<path class="st2" d="M1443,81.3h18.6v140.1h-18.4v-18.6c-8.9,14-20.5,21.1-34.8,21.1c-11.6,0-21.6-4.6-29.8-13.9
		c-8.3-9.3-12.4-20.4-12.4-33.5c0-12.7,4.2-23.7,12.6-32.9c8.4-9.2,18.5-13.8,30.2-13.8c7,0,13.5,1.9,19.6,5.8
		c6.1,3.9,10.9,9,14.5,15.2V81.3z M1445.2,176.8c0-8-2.9-14.9-8.8-20.8c-5.8-5.9-12.8-8.8-20.9-8.8c-8.4,0-15.5,2.9-21.3,8.6
		c-5.8,5.7-8.7,12.7-8.7,21c0,7.9,3,14.8,8.9,20.8c5.9,5.9,12.8,8.9,20.7,8.9c8.4,0,15.5-2.9,21.3-8.6
		C1442.3,192.1,1445.2,185,1445.2,176.8z"/>
	<path class="st2" d="M1579.3,180.5h-76c1.7,9.1,5.4,15.8,11.3,20c5.9,4.2,12.3,6.3,19.2,6.3c10.7,0,19.6-4.4,26.8-13.3l13.7,10.4
		c-10.3,13.3-24.1,20-41.4,20c-13.2,0-24.3-4.5-33.3-13.6c-8.9-9.1-13.4-20.3-13.4-33.8c0-12.6,4.5-23.5,13.5-32.8
		c9-9.2,20.1-13.9,33.1-13.9c12.8,0,23.8,4.7,32.9,14.1C1574.9,153.4,1579.4,165.6,1579.3,180.5z M1505.2,165.5h54.4
		c-6-12.2-15-18.4-26.8-18.4C1520,147.2,1510.8,153.3,1505.2,165.5z"/>
	<path class="st2" d="M1621.8,132.4v18.4c4.2-7.3,8.3-12.6,12.3-15.9c4-3.3,9.2-4.9,15.6-4.9c1.8,0,4.4,0.4,7.8,1.3l-5.7,18.8
		c-3.6-0.7-6-1.1-7.1-1.1c-6.3,0-11.6,2.2-15.9,6.6c-4.3,4.4-6.4,10-6.4,16.6v49.3h-18.8v-89.1H1621.8z"/>
</g>
<g>
	<g>
		<path d="M968.3,294.3c0,0.3-0.1,0.5-0.3,0.8c-0.2,0.2-0.4,0.4-0.8,0.4c-0.2,0-0.3,0-0.5-0.1c-0.2-0.1-0.3-0.2-0.4-0.2
			c-0.5-0.4-1.1-0.8-1.7-1.2c-0.6-0.4-1.2-0.8-1.9-1.2c-0.6-0.4-1.3-0.8-1.9-1.1c-0.6-0.3-1.2-0.6-1.8-0.8c-1-0.3-2-0.5-3.1-0.7
			c-1.1-0.2-2.2-0.3-3.2-0.3c-1.9,0-3.7,0.2-5.5,0.7c-1.8,0.5-3.4,1.2-4.9,2.1c-1.5,0.9-2.9,2-4.2,3.2c-1.2,1.2-2.3,2.6-3.2,4.2
			c-0.9,1.5-1.6,3.2-2.1,4.9c-0.5,1.8-0.7,3.6-0.7,5.5c0,1.9,0.3,3.7,0.8,5.4c0.5,1.7,1.2,3.4,2.1,4.9c0.9,1.5,2,2.9,3.2,4.2
			c1.3,1.3,2.7,2.3,4.2,3.2c1.5,0.9,3.2,1.6,4.9,2.1c1.7,0.5,3.5,0.8,5.4,0.8c5,0,9.4-1.6,13.2-4.8c0.1,0,0.1-0.1,0.2-0.2
			c0.1-0.1,0.2-0.1,0.3-0.2c0.1-0.1,0.2-0.1,0.3-0.2c0.1-0.1,0.2-0.1,0.3-0.1c0.4,0,0.7,0.1,0.8,0.3c0.2,0.2,0.3,0.5,0.3,0.8
			c0,0.3-0.1,0.5-0.2,0.6c-0.1,0.1-0.2,0.3-0.4,0.4c-0.9,0.9-1.9,1.6-3.1,2.3c-1.2,0.7-2.5,1.3-3.9,1.8c-1.4,0.5-2.8,0.9-4.1,1.1
			c-1.4,0.3-2.7,0.4-3.9,0.4c-2.1,0-4.1-0.3-6-0.8c-1.9-0.6-3.7-1.3-5.4-2.3c-1.7-1-3.2-2.2-4.6-3.6c-1.4-1.4-2.6-3-3.6-4.7
			c-1-1.7-1.8-3.5-2.4-5.4c-0.6-1.9-0.8-3.9-0.8-6c0-2.1,0.3-4.1,0.8-6.1c0.6-2,1.3-3.8,2.3-5.5c1-1.7,2.2-3.2,3.6-4.6
			c1.4-1.4,2.9-2.6,4.6-3.6c1.7-1,3.5-1.8,5.5-2.3c1.9-0.6,4-0.8,6.1-0.8c1.3,0,2.7,0.1,4,0.4c1.3,0.3,2.6,0.6,3.9,1.1
			c1.3,0.5,2.5,1.1,3.7,1.8c1.2,0.7,2.3,1.5,3.3,2.4l0,0c0.3,0.3,0.6,0.6,0.8,1V294.3z"/>
		<path d="M982.9,314.7c1.3,0,2.5,0.2,3.7,0.7c1.1,0.5,2.1,1.1,2.9,2c0.8,0.8,1.5,1.8,2,3c0.5,1.1,0.7,2.3,0.7,3.7
			c0,1.3-0.2,2.5-0.7,3.6c-0.5,1.1-1.1,2.1-2,3c-0.8,0.9-1.8,1.5-3,2c-1.1,0.5-2.3,0.7-3.6,0.7c-1.3,0-2.5-0.2-3.6-0.7
			c-1.1-0.5-2.1-1.2-3-2c-0.8-0.8-1.5-1.8-2-3c-0.5-1.1-0.7-2.3-0.7-3.6c0-1.3,0.2-2.5,0.7-3.6c0.5-1.1,1.1-2.1,2-3
			c0.8-0.8,1.8-1.5,3-2C980.4,315,981.6,314.7,982.9,314.7z M982.9,317.5c-0.9,0-1.8,0.2-2.6,0.5c-0.8,0.3-1.5,0.8-2.1,1.4
			c-0.6,0.6-1.1,1.3-1.4,2.1c-0.3,0.8-0.5,1.7-0.5,2.6c0,0.9,0.2,1.7,0.5,2.5c0.3,0.8,0.8,1.5,1.4,2.1c0.6,0.6,1.3,1.1,2.1,1.4
			c0.8,0.3,1.7,0.5,2.5,0.5c0.9,0,1.8-0.2,2.6-0.5c0.8-0.3,1.5-0.8,2.1-1.4c0.6-0.6,1-1.3,1.4-2.1c0.3-0.8,0.5-1.6,0.5-2.6
			c0-0.9-0.2-1.8-0.5-2.6c-0.3-0.8-0.8-1.5-1.4-2.1c-0.6-0.6-1.3-1-2.1-1.4C984.6,317.6,983.8,317.5,982.9,317.5z"/>
		<path d="M999.1,333.3c-0.5,0-0.9-0.1-1.1-0.4c-0.2-0.2-0.3-0.6-0.3-1.1v-15.4c0-0.5,0.1-0.8,0.4-1.1c0.3-0.3,0.6-0.4,1-0.4
			c0.3,0,0.5,0.1,0.7,0.2c0.2,0.2,0.3,0.4,0.4,0.6c0.1,0.3,0.2,0.6,0.2,0.9c0,0.3,0.1,0.7,0.1,1.1v0.1c1.1-0.8,2.2-1.5,3.4-2.1
			c1.2-0.6,2.5-0.9,3.9-0.9c1.2,0,2.1,0.2,2.9,0.6c0.8,0.4,1.4,0.9,1.8,1.5c0.5,0.7,0.8,1.4,1,2.3c0.2,0.9,0.3,1.8,0.3,2.8v9.6
			c0,0.4-0.1,0.8-0.4,1c-0.3,0.3-0.6,0.4-1,0.4c-0.9,0-1.4-0.5-1.4-1.4V322c0-0.6-0.1-1.2-0.2-1.7c-0.1-0.5-0.3-1-0.6-1.4
			c-0.3-0.4-0.6-0.7-1-0.9c-0.4-0.2-1-0.3-1.6-0.3c-0.7,0-1.3,0.1-1.9,0.4c-0.6,0.2-1.3,0.5-1.9,0.9c-0.6,0.4-1.2,0.8-1.8,1.2
			s-1.1,0.9-1.5,1.4v10.3c0,0.4-0.1,0.8-0.4,1C999.8,333.2,999.5,333.3,999.1,333.3z"/>
		<path d="M1028,333.3c-0.4,0-0.6-0.1-0.8-0.3c-0.2-0.2-0.4-0.4-0.5-0.7l-1-1.8c-0.4-0.7-0.8-1.5-1.3-2.5c-0.5-1-1-1.9-1.6-3
			c-0.5-1-1.1-2.1-1.6-3.1c-0.5-1-1-2-1.4-2.8c-0.4-0.8-0.8-1.5-1-2.1c-0.3-0.6-0.4-0.9-0.4-1c0-0.4,0.1-0.7,0.4-0.9
			s0.6-0.4,0.9-0.4c0.6,0,1,0.2,1.3,0.7l7.1,13.6c1.2-2.2,2.4-4.5,3.6-6.9c1.2-2.4,2.4-4.7,3.6-6.9l0.7-0.4c0.2-0.1,0.3-0.1,0.5-0.1
			c0.1,0,0.3,0,0.4,0.1c0.2,0.1,0.3,0.1,0.4,0.3c0.1,0.1,0.3,0.2,0.4,0.4c0.1,0.2,0.1,0.3,0.1,0.5c0,0.1-0.1,0.4-0.4,0.9
			c-0.2,0.5-0.6,1.2-0.9,1.9c-0.4,0.8-0.8,1.6-1.3,2.6c-0.5,1-1,2-1.5,3c-0.5,1-1,2-1.5,3c-0.5,1-1,1.8-1.4,2.6l-1.2,2.3
			c-0.1,0.2-0.3,0.5-0.5,0.7S1028.4,333.3,1028,333.3z"/>
		<path d="M1043.3,325c0.2,1.8,0.8,3.2,2,4.1s2.7,1.5,4.6,1.5c0.7,0,1.3-0.1,1.8-0.2c0.6-0.2,1.1-0.4,1.5-0.6
			c0.5-0.2,0.9-0.5,1.2-0.7s0.7-0.5,0.9-0.7c0.3-0.2,0.5-0.4,0.8-0.6c0.2-0.2,0.5-0.2,0.8-0.2c0.4,0,0.7,0.1,0.9,0.4
			c0.2,0.3,0.4,0.6,0.4,0.9c0,0.3,0,0.5-0.1,0.7c-0.1,0.2-0.2,0.4-0.4,0.5c-1.2,1.2-2.4,2-3.6,2.5c-1.2,0.5-2.7,0.8-4.3,0.8
			c-1.4,0-2.7-0.2-3.8-0.7c-1.1-0.5-2.1-1.1-2.9-1.9c-0.8-0.8-1.4-1.8-1.8-2.9c-0.4-1.1-0.6-2.4-0.6-3.8c0-1.3,0.2-2.6,0.7-3.7
			c0.5-1.1,1.1-2.1,1.9-2.9c0.8-0.8,1.8-1.5,2.9-1.9c1.1-0.5,2.4-0.7,3.7-0.7c1.2,0,2.3,0.2,3.4,0.7c1.1,0.5,2,1.1,2.8,1.9
			c0.8,0.8,1.5,1.7,1.9,2.8c0.5,1.1,0.7,2.2,0.7,3.4c0,0.6-0.1,1-0.4,1.2c-0.3,0.2-0.7,0.4-1.2,0.4H1043.3z M1055.8,322.3
			c-0.3-1.5-1.1-2.7-2.2-3.6c-1.1-0.9-2.4-1.3-4-1.3c-0.8,0-1.5,0.1-2.2,0.3c-0.7,0.2-1.3,0.6-1.8,1c-0.5,0.4-1,0.9-1.4,1.5
			c-0.4,0.6-0.6,1.3-0.8,2L1055.8,322.3z"/>
		<path d="M1065.6,333.3c-0.5,0-0.9-0.1-1.1-0.4c-0.2-0.2-0.3-0.6-0.3-1.1v-15.4c0-0.5,0.1-0.8,0.4-1.1c0.3-0.3,0.6-0.4,1-0.4
			c0.3,0,0.5,0.1,0.7,0.2c0.2,0.2,0.3,0.4,0.4,0.6c0.1,0.3,0.2,0.6,0.2,0.9c0,0.3,0.1,0.7,0.1,1.1v0.1c1.1-0.8,2.2-1.5,3.4-2.1
			c1.2-0.6,2.5-0.9,3.9-0.9c1.2,0,2.1,0.2,2.9,0.6c0.8,0.4,1.4,0.9,1.8,1.5c0.5,0.7,0.8,1.4,1,2.3c0.2,0.9,0.3,1.8,0.3,2.8v9.6
			c0,0.4-0.1,0.8-0.4,1c-0.3,0.3-0.6,0.4-1,0.4c-0.9,0-1.4-0.5-1.4-1.4V322c0-0.6-0.1-1.2-0.2-1.7c-0.1-0.5-0.3-1-0.6-1.4
			c-0.3-0.4-0.6-0.7-1-0.9s-1-0.3-1.6-0.3s-1.3,0.1-1.9,0.4c-0.6,0.2-1.3,0.5-1.9,0.9c-0.6,0.4-1.2,0.8-1.8,1.2
			c-0.6,0.5-1.1,0.9-1.5,1.4v10.3c0,0.4-0.1,0.8-0.4,1C1066.4,333.2,1066,333.3,1065.6,333.3z"/>
		<path d="M1089.6,302.4c0.6,0,1.1,0.2,1.5,0.7c0.4,0.4,0.7,1,0.7,1.5c0,0.6-0.2,1.1-0.7,1.5c-0.4,0.4-0.9,0.7-1.5,0.7
			c-0.6,0-1.1-0.2-1.5-0.7c-0.4-0.4-0.7-0.9-0.7-1.5c0-0.3,0.1-0.6,0.2-0.8c0.1-0.3,0.3-0.5,0.5-0.7c0.2-0.2,0.4-0.4,0.7-0.5
			C1089,302.4,1089.3,302.4,1089.6,302.4z M1090.9,331.9c0,0.4-0.1,0.7-0.4,1s-0.6,0.4-1,0.4c-0.5,0-0.9-0.1-1.1-0.4
			c-0.2-0.3-0.3-0.6-0.3-1v-15.4c0-0.4,0.1-0.7,0.4-1c0.3-0.3,0.6-0.4,1-0.4c0.5,0,0.9,0.2,1.1,0.5s0.3,0.7,0.3,1V331.9z"/>
		<path d="M1099.3,325c0.2,1.8,0.8,3.2,2,4.1s2.7,1.5,4.6,1.5c0.7,0,1.3-0.1,1.8-0.2c0.6-0.2,1.1-0.4,1.5-0.6
			c0.5-0.2,0.9-0.5,1.2-0.7s0.7-0.5,0.9-0.7c0.3-0.2,0.5-0.4,0.8-0.6c0.2-0.2,0.5-0.2,0.8-0.2c0.4,0,0.7,0.1,0.9,0.4
			c0.2,0.3,0.4,0.6,0.4,0.9c0,0.3,0,0.5-0.1,0.7c-0.1,0.2-0.2,0.4-0.4,0.5c-1.2,1.2-2.4,2-3.6,2.5c-1.2,0.5-2.7,0.8-4.3,0.8
			c-1.4,0-2.7-0.2-3.8-0.7c-1.1-0.5-2.1-1.1-2.9-1.9c-0.8-0.8-1.4-1.8-1.8-2.9c-0.4-1.1-0.6-2.4-0.6-3.8c0-1.3,0.2-2.6,0.7-3.7
			c0.5-1.1,1.1-2.1,1.9-2.9c0.8-0.8,1.8-1.5,2.9-1.9c1.1-0.5,2.4-0.7,3.7-0.7c1.2,0,2.3,0.2,3.4,0.7c1.1,0.5,2,1.1,2.8,1.9
			c0.8,0.8,1.5,1.7,1.9,2.8c0.5,1.1,0.7,2.2,0.7,3.4c0,0.6-0.1,1-0.4,1.2c-0.3,0.2-0.7,0.4-1.2,0.4H1099.3z M1111.8,322.3
			c-0.3-1.5-1.1-2.7-2.2-3.6c-1.1-0.9-2.4-1.3-4-1.3c-0.8,0-1.5,0.1-2.2,0.3c-0.7,0.2-1.3,0.6-1.8,1c-0.5,0.4-1,0.9-1.4,1.5
			c-0.4,0.6-0.6,1.3-0.8,2L1111.8,322.3z"/>
		<path d="M1121.6,333.3c-0.5,0-0.9-0.1-1.1-0.4c-0.2-0.2-0.3-0.6-0.3-1.1v-15.4c0-0.5,0.1-0.8,0.4-1.1c0.3-0.3,0.6-0.4,1-0.4
			c0.3,0,0.5,0.1,0.7,0.2c0.2,0.2,0.3,0.4,0.4,0.6c0.1,0.3,0.2,0.6,0.2,0.9c0,0.3,0.1,0.7,0.1,1.1v0.1c1.1-0.8,2.2-1.5,3.4-2.1
			c1.2-0.6,2.5-0.9,3.9-0.9c1.2,0,2.1,0.2,2.9,0.6c0.8,0.4,1.4,0.9,1.8,1.5c0.5,0.7,0.8,1.4,1,2.3c0.2,0.9,0.3,1.8,0.3,2.8v9.6
			c0,0.4-0.1,0.8-0.4,1c-0.3,0.3-0.6,0.4-1,0.4c-0.9,0-1.4-0.5-1.4-1.4V322c0-0.6-0.1-1.2-0.2-1.7c-0.1-0.5-0.3-1-0.6-1.4
			c-0.3-0.4-0.6-0.7-1-0.9c-0.4-0.2-1-0.3-1.6-0.3s-1.3,0.1-1.9,0.4c-0.6,0.2-1.3,0.5-1.9,0.9c-0.6,0.4-1.2,0.8-1.8,1.2
			c-0.6,0.5-1.1,0.9-1.5,1.4v10.3c0,0.4-0.1,0.8-0.4,1C1122.4,333.2,1122,333.3,1121.6,333.3z"/>
		<path d="M1158.6,328.5c0.4,0,0.7,0.2,0.9,0.5c0.2,0.3,0.3,0.6,0.3,0.9c0,0.3-0.2,0.6-0.5,0.9s-0.7,0.6-1.2,0.8
			c-0.5,0.3-1,0.5-1.6,0.7c-0.6,0.2-1.2,0.4-1.7,0.6c-0.6,0.1-1.1,0.3-1.5,0.4c-0.5,0.1-0.8,0.1-1,0.1c-1.4,0-2.7-0.2-4-0.6
			c-1.3-0.4-2.4-1-3.3-1.8c-1-0.8-1.7-1.8-2.3-2.9c-0.6-1.2-0.8-2.5-0.8-4c0-1.3,0.3-2.6,0.8-3.7s1.3-2.1,2.2-2.9
			c0.9-0.8,2-1.5,3.1-1.9c1.2-0.5,2.4-0.7,3.7-0.7c0.2,0,0.6,0,1.1,0.1c0.5,0.1,1,0.2,1.6,0.3s1.2,0.3,1.9,0.5
			c0.6,0.2,1.2,0.4,1.8,0.7c0.5,0.2,1,0.5,1.3,0.8c0.3,0.3,0.5,0.6,0.5,1c0,0.3-0.1,0.6-0.3,0.9c-0.2,0.3-0.6,0.4-1,0.4
			c0,0-0.1,0-0.1-0.1l-0.3-0.1h0c-0.2-0.1-0.5-0.2-0.9-0.4c-0.4-0.2-0.9-0.4-1.5-0.6c-0.6-0.2-1.2-0.4-1.8-0.5
			c-0.7-0.1-1.3-0.2-1.9-0.2c-1,0-1.9,0.2-2.7,0.5c-0.9,0.3-1.6,0.7-2.3,1.3c-0.7,0.6-1.2,1.2-1.6,2.1c-0.4,0.8-0.6,1.7-0.6,2.7
			c0,1.1,0.2,2,0.6,2.8c0.4,0.8,1,1.5,1.7,2.1c0.7,0.6,1.5,1,2.5,1.3c0.9,0.3,1.9,0.4,2.8,0.4c0.6,0,1.2-0.1,1.7-0.2
			c0.5-0.1,1.1-0.3,1.5-0.5c0.5-0.2,0.9-0.4,1.2-0.6c0.4-0.2,0.7-0.4,0.9-0.5h0.1c0.2-0.1,0.3-0.2,0.4-0.2
			C1158.3,328.5,1158.4,328.5,1158.6,328.5z"/>
		<path d="M1165.9,325c0.2,1.8,0.8,3.2,2,4.1c1.2,1,2.7,1.5,4.6,1.5c0.7,0,1.3-0.1,1.8-0.2c0.6-0.2,1.1-0.4,1.5-0.6
			c0.5-0.2,0.9-0.5,1.2-0.7s0.7-0.5,0.9-0.7c0.3-0.2,0.5-0.4,0.8-0.6c0.2-0.2,0.5-0.2,0.8-0.2c0.4,0,0.7,0.1,0.9,0.4
			c0.2,0.3,0.4,0.6,0.4,0.9c0,0.3,0,0.5-0.1,0.7c-0.1,0.2-0.2,0.4-0.4,0.5c-1.2,1.2-2.4,2-3.6,2.5c-1.2,0.5-2.7,0.8-4.3,0.8
			c-1.4,0-2.7-0.2-3.8-0.7c-1.1-0.5-2.1-1.1-2.9-1.9c-0.8-0.8-1.4-1.8-1.8-2.9c-0.4-1.1-0.6-2.4-0.6-3.8c0-1.3,0.2-2.6,0.7-3.7
			c0.5-1.1,1.1-2.1,1.9-2.9c0.8-0.8,1.8-1.5,2.9-1.9c1.1-0.5,2.4-0.7,3.7-0.7c1.2,0,2.3,0.2,3.4,0.7c1.1,0.5,2,1.1,2.8,1.9
			c0.8,0.8,1.5,1.7,1.9,2.8c0.5,1.1,0.7,2.2,0.7,3.4c0,0.6-0.1,1-0.4,1.2c-0.3,0.2-0.7,0.4-1.2,0.4H1165.9z M1178.4,322.3
			c-0.3-1.5-1.1-2.7-2.2-3.6c-1.1-0.9-2.4-1.3-4-1.3c-0.8,0-1.5,0.1-2.2,0.3c-0.7,0.2-1.3,0.6-1.8,1c-0.5,0.4-1,0.9-1.4,1.5
			c-0.4,0.6-0.6,1.3-0.8,2L1178.4,322.3z"/>
		<path d="M1248.7,292.2l-14.8,19.2c-0.1,0.1-0.3,0.3-0.5,0.4c-0.2,0.1-0.4,0.2-0.7,0.2c-0.3,0-0.6-0.1-0.7-0.2
			c-0.1-0.1-0.2-0.3-0.3-0.4l0-0.1c-2.5-3.2-4.9-6.4-7.3-9.6c-2.4-3.1-4.9-6.3-7.4-9.6v39.8c0,0.4-0.1,0.7-0.3,0.9
			c-0.2,0.2-0.5,0.3-0.9,0.3c-0.4,0-0.7-0.1-0.9-0.4c-0.1-0.2-0.2-0.5-0.2-0.9V289c0-0.1,0-0.3,0-0.5c0-0.2,0.1-0.3,0.1-0.4
			c0.1-0.1,0.2-0.2,0.3-0.3c0.1-0.1,0.3-0.1,0.6-0.1c0.3,0,0.6,0.1,0.7,0.2c0.2,0.1,0.3,0.3,0.4,0.5l15.9,20.7
			c2.7-3.5,5.3-6.9,7.9-10.3c2.6-3.4,5.3-6.9,7.9-10.3c0.1-0.2,0.3-0.4,0.5-0.5c0.2-0.2,0.4-0.3,0.8-0.3c0.4,0,0.7,0.1,0.9,0.4
			c0.1,0.3,0.2,0.6,0.2,0.9v43.1c0,0.4-0.1,0.7-0.3,0.9c-0.2,0.2-0.5,0.3-0.9,0.3c-0.5,0-0.8-0.1-0.9-0.3c-0.1-0.2-0.2-0.5-0.2-0.9
			V292.2z"/>
		<path d="M1259.3,325c0.2,1.8,0.8,3.2,2,4.1c1.2,1,2.7,1.5,4.6,1.5c0.7,0,1.3-0.1,1.8-0.2c0.6-0.2,1.1-0.4,1.5-0.6
			c0.5-0.2,0.9-0.5,1.2-0.7s0.7-0.5,0.9-0.7c0.3-0.2,0.5-0.4,0.8-0.6c0.2-0.2,0.5-0.2,0.8-0.2c0.4,0,0.7,0.1,0.9,0.4
			c0.2,0.3,0.4,0.6,0.4,0.9c0,0.3,0,0.5-0.1,0.7c-0.1,0.2-0.2,0.4-0.4,0.5c-1.2,1.2-2.4,2-3.6,2.5c-1.2,0.5-2.7,0.8-4.3,0.8
			c-1.4,0-2.7-0.2-3.8-0.7c-1.1-0.5-2.1-1.1-2.9-1.9c-0.8-0.8-1.4-1.8-1.8-2.9c-0.4-1.1-0.6-2.4-0.6-3.8c0-1.3,0.2-2.6,0.7-3.7
			c0.5-1.1,1.1-2.1,1.9-2.9c0.8-0.8,1.8-1.5,2.9-1.9c1.1-0.5,2.4-0.7,3.7-0.7c1.2,0,2.3,0.2,3.4,0.7c1.1,0.5,2,1.1,2.8,1.9
			c0.8,0.8,1.5,1.7,1.9,2.8c0.5,1.1,0.7,2.2,0.7,3.4c0,0.6-0.1,1-0.4,1.2c-0.3,0.2-0.7,0.4-1.2,0.4H1259.3z M1271.8,322.3
			c-0.3-1.5-1.1-2.7-2.2-3.6c-1.1-0.9-2.4-1.3-4-1.3c-0.8,0-1.5,0.1-2.2,0.3c-0.7,0.2-1.3,0.6-1.8,1c-0.5,0.4-1,0.9-1.4,1.5
			c-0.4,0.6-0.6,1.3-0.8,2L1271.8,322.3z"/>
		<path d="M1281,325c0.2,1.8,0.8,3.2,2,4.1c1.2,1,2.7,1.5,4.6,1.5c0.7,0,1.3-0.1,1.8-0.2c0.6-0.2,1.1-0.4,1.5-0.6
			c0.5-0.2,0.9-0.5,1.2-0.7c0.4-0.3,0.7-0.5,0.9-0.7c0.3-0.2,0.5-0.4,0.8-0.6c0.2-0.2,0.5-0.2,0.8-0.2c0.4,0,0.7,0.1,0.9,0.4
			c0.2,0.3,0.4,0.6,0.4,0.9c0,0.3,0,0.5-0.1,0.7c-0.1,0.2-0.2,0.4-0.4,0.5c-1.2,1.2-2.4,2-3.6,2.5c-1.2,0.5-2.7,0.8-4.3,0.8
			c-1.4,0-2.7-0.2-3.8-0.7c-1.1-0.5-2.1-1.1-2.9-1.9c-0.8-0.8-1.4-1.8-1.8-2.9c-0.4-1.1-0.6-2.4-0.6-3.8c0-1.3,0.2-2.6,0.7-3.7
			c0.5-1.1,1.1-2.1,1.9-2.9c0.8-0.8,1.8-1.5,2.9-1.9c1.1-0.5,2.4-0.7,3.7-0.7c1.2,0,2.3,0.2,3.4,0.7c1.1,0.5,2,1.1,2.8,1.9
			c0.8,0.8,1.5,1.7,1.9,2.8c0.5,1.1,0.7,2.2,0.7,3.4c0,0.6-0.1,1-0.4,1.2c-0.3,0.2-0.7,0.4-1.2,0.4H1281z M1293.5,322.3
			c-0.3-1.5-1.1-2.7-2.2-3.6c-1.1-0.9-2.4-1.3-4-1.3c-0.8,0-1.5,0.1-2.2,0.3c-0.7,0.2-1.3,0.6-1.8,1c-0.5,0.4-1,0.9-1.4,1.5
			c-0.4,0.6-0.6,1.3-0.8,2L1293.5,322.3z"/>
		<path d="M1306.7,325.9c0,0.7,0,1.3,0.1,1.9c0.1,0.6,0.2,1.1,0.5,1.5c0.3,0.4,0.6,0.7,1.1,1c0.4,0.2,1,0.3,1.8,0.3
			c0.5,0,1-0.1,1.4-0.2c0.4-0.1,0.8-0.3,1.2-0.6c0.4-0.2,0.7-0.5,0.9-0.7c0.3-0.2,0.5-0.5,0.7-0.7c0.2-0.2,0.4-0.4,0.7-0.6
			c0.2-0.2,0.5-0.3,0.7-0.3c0.3,0,0.6,0.1,0.9,0.4c0.3,0.2,0.4,0.6,0.4,1c0,0.2,0,0.3-0.1,0.5c-0.1,0.2-0.2,0.4-0.4,0.6l0-0.1
			c-0.7,1.1-1.7,1.9-2.8,2.5c-1.1,0.6-2.3,0.9-3.6,0.9c-1.3,0-2.3-0.2-3.1-0.5c-0.8-0.3-1.5-0.8-1.9-1.5c-0.5-0.6-0.8-1.4-1-2.3
			c-0.2-0.9-0.2-1.9-0.2-3.1l0.1-8.1h-4.4c-0.4,0-0.8-0.1-1-0.4s-0.4-0.6-0.4-1c0-0.6,0.1-0.9,0.4-1.1s0.6-0.2,1-0.2h4.4l0.4-12.2
			c0-0.3,0.2-0.7,0.4-1c0.2-0.3,0.6-0.5,0.9-0.5c0.5,0,0.9,0.1,1.1,0.4c0.2,0.3,0.3,0.6,0.3,1.1l-0.3,12.2h6.8c0.4,0,0.7,0.1,1,0.4
			c0.3,0.3,0.4,0.6,0.4,1c0,0.5-0.1,0.9-0.4,1c-0.3,0.2-0.6,0.3-1,0.3h-6.9c0,0.2,0,0.3,0,0.4s0,0.3,0,0.4c0,0.2,0,0.4,0,0.6
			c0,0.3,0,0.5,0,0.6c0,1-0.1,2-0.1,3C1306.7,323.9,1306.7,324.9,1306.7,325.9z"/>
		<path d="M1324.7,330.1c0.4,0.1,0.8,0.2,1.1,0.3c0.4,0.1,0.8,0.1,1.2,0.1c0.3,0,0.6,0,0.9-0.1c0.3-0.1,0.6-0.2,0.8-0.3
			c0.2-0.1,0.4-0.3,0.6-0.6c0.1-0.2,0.2-0.5,0.2-0.8c0-0.3-0.1-0.6-0.3-0.8c-0.2-0.2-0.4-0.4-0.7-0.6c-0.3-0.2-0.6-0.3-1-0.5
			c-0.4-0.1-0.7-0.3-1.1-0.4c-0.6-0.2-1.2-0.5-1.8-0.7c-0.6-0.3-1.1-0.6-1.6-0.9c-0.5-0.4-0.8-0.8-1.1-1.4c-0.3-0.5-0.4-1.2-0.4-2
			c0-1.1,0.2-2.1,0.7-2.9c0.4-0.8,1-1.5,1.7-2.1c0.7-0.6,1.5-1,2.5-1.3c0.9-0.3,1.9-0.4,2.9-0.4c0.2,0,0.6,0,1.1,0.1
			c0.5,0.1,1.1,0.2,1.6,0.4c0.6,0.2,1,0.4,1.5,0.7c0.4,0.3,0.6,0.7,0.6,1.1c0,0.4-0.1,0.7-0.4,1c-0.2,0.2-0.6,0.4-1,0.4
			c-0.1,0-0.3,0-0.5-0.1c-0.2-0.1-0.4-0.1-0.6-0.2h0c-0.4-0.2-0.8-0.3-1.3-0.5c-0.5-0.1-1-0.2-1.4-0.2c-0.6,0-1.2,0.1-1.8,0.3
			c-0.6,0.2-1.1,0.4-1.5,0.8c-0.4,0.3-0.8,0.7-1.1,1.2c-0.3,0.5-0.4,1-0.4,1.7c0,0.4,0.1,0.7,0.3,1s0.4,0.5,0.8,0.7
			c0.3,0.2,0.7,0.4,1.1,0.6c0.4,0.2,0.8,0.3,1.2,0.5c0.6,0.2,1.1,0.4,1.7,0.7c0.6,0.2,1.1,0.5,1.5,0.8c0.4,0.3,0.8,0.7,1.1,1.2
			s0.4,1.1,0.4,1.8c0,0.8-0.1,1.5-0.4,2.1c-0.3,0.6-0.7,1.1-1.2,1.5c-0.5,0.4-1.1,0.7-1.7,0.9c-0.6,0.2-1.3,0.3-2,0.3
			c-0.2,0-0.6,0-1.1-0.1c-0.5-0.1-1-0.2-1.5-0.4c-0.5-0.2-1-0.4-1.4-0.7c-0.4-0.3-0.6-0.6-0.6-1c0-0.3,0-0.6,0.1-0.8
			c0.1-0.2,0.2-0.3,0.4-0.4c0.2-0.1,0.3-0.1,0.5-0.1c0.2,0,0.4,0,0.6,0c0,0,0.1,0,0.3,0.1C1324.5,330,1324.6,330,1324.7,330.1
			L1324.7,330.1z"/>
		<path d="M1368.5,333.3c-0.5,0-0.8-0.1-0.9-0.3c-0.1-0.2-0.2-0.5-0.2-0.9v-41.9h-13.9c-0.4,0-0.7-0.1-0.9-0.3
			c-0.2-0.2-0.3-0.5-0.3-0.9c0-0.4,0.1-0.7,0.3-0.9s0.5-0.2,0.9-0.2h30.1c0.4,0,0.8,0.1,0.9,0.3s0.3,0.5,0.3,0.9
			c0,0.3-0.1,0.6-0.4,0.8c-0.3,0.2-0.5,0.3-0.8,0.3h-13.9v41.9c0,0.4-0.1,0.7-0.3,0.9C1369.2,333.2,1368.9,333.3,1368.5,333.3z"/>
		<path d="M1384.7,317.8c-0.2,0-0.5,0-0.7,0.1s-0.5,0.2-0.8,0.4c-0.3,0.1-0.5,0.3-0.8,0.5c-0.2,0.2-0.5,0.3-0.7,0.5
			c-0.3,0.2-0.6,0.4-0.9,0.6c-0.3,0.1-0.5,0.2-0.7,0.2c-0.3,0-0.6-0.1-0.8-0.3c-0.2-0.2-0.4-0.4-0.5-0.6c0-0.4,0.2-0.9,0.7-1.3
			c0.5-0.5,1.1-0.9,1.7-1.3c0.7-0.4,1.3-0.7,2-1c0.7-0.3,1.2-0.4,1.5-0.4c0.7,0,1.3,0.1,1.8,0.4c0.5,0.2,0.8,0.6,1.1,0.9
			c0.3,0.4,0.5,0.8,0.6,1.3c0.1,0.5,0.2,1,0.2,1.5c0.5-0.5,1.1-1,1.6-1.5c0.6-0.5,1.2-0.9,1.8-1.4c0.6-0.4,1.3-0.7,1.9-1
			c0.7-0.2,1.3-0.4,2-0.4c1.5,0,2.6,0.5,3.5,1.4c0.9,0.9,1.3,2.1,1.3,3.5c0,0.5-0.1,1.1-0.3,1.7c-0.2,0.6-0.5,1.2-0.8,1.7
			c-0.4,0.5-0.8,1-1.3,1.4c-0.5,0.4-1.1,0.5-1.7,0.5c-0.4,0-0.7-0.1-0.9-0.4c-0.2-0.2-0.3-0.5-0.3-0.9c0-0.3,0.1-0.6,0.2-0.7
			s0.3-0.2,0.5-0.4l0.3-0.2l0,0c0.2-0.1,0.3-0.2,0.5-0.4s0.4-0.3,0.5-0.5c0.2-0.2,0.3-0.4,0.4-0.7c0.1-0.3,0.2-0.6,0.2-1
			c0-0.8-0.2-1.3-0.6-1.8c-0.4-0.4-1-0.7-1.7-0.7c-0.5,0-1.1,0.2-1.8,0.5c-0.7,0.4-1.3,0.8-2,1.4c-0.7,0.5-1.3,1.1-1.9,1.7
			c-0.6,0.6-1.1,1.1-1.5,1.5v9.1c0,0.4-0.1,0.8-0.4,1c-0.3,0.3-0.6,0.4-1,0.4c-0.6,0-1-0.1-1.1-0.4c-0.1-0.3-0.2-0.6-0.2-1v-11.5
			c0-0.3,0-0.6,0-0.9c0-0.3,0-0.6-0.1-0.8s-0.2-0.5-0.3-0.6C1385.2,317.8,1385,317.8,1384.7,317.8z"/>
		<path d="M1423,331.6c0,0.4-0.1,0.8-0.3,1c-0.2,0.3-0.5,0.4-1.1,0.4c-0.4,0-0.8-0.1-1-0.4c-0.3-0.3-0.4-0.6-0.4-1v-7.3
			c-0.6,1.1-1.3,2.2-2.1,3.3c-0.8,1.1-1.7,2-2.7,2.9c-1,0.9-2,1.5-3.2,2.1c-1.1,0.5-2.3,0.8-3.6,0.8c-1.8,0-3.2-0.5-4.3-1.5
			c-1.1-1-1.6-2.4-1.6-4.3c0-1.3,0.3-2.5,0.8-3.7c0.5-1.2,1.3-2.2,2.2-3.2c0.9-1,1.9-1.8,3.1-2.6s2.4-1.4,3.7-1.9
			c1.3-0.5,2.6-0.9,3.8-1.2c1.3-0.3,2.5-0.4,3.6-0.4h0.3c0.3,0,0.5,0,0.9,0c0.3,0,0.6,0.1,0.9,0.2c0.3,0.1,0.5,0.3,0.7,0.5
			c0.2,0.2,0.3,0.6,0.3,1V331.6z M1408.7,330.6c1,0,1.9-0.2,2.8-0.6c0.9-0.4,1.7-0.9,2.5-1.6c0.8-0.7,1.5-1.5,2.1-2.3
			c0.6-0.9,1.2-1.8,1.7-2.8c0.5-1,0.9-2,1.3-3c0.4-1,0.7-2,0.9-2.9c-0.9,0-1.9,0.1-3,0.3c-1.1,0.2-2.2,0.5-3.2,0.9
			c-1.1,0.4-2.1,0.9-3.1,1.5c-1,0.6-1.9,1.2-2.6,2c-0.8,0.7-1.4,1.6-1.8,2.5c-0.5,0.9-0.7,1.9-0.7,3c0,1,0.3,1.7,0.9,2.2
			S1407.8,330.6,1408.7,330.6z"/>
		<path d="M1432.3,333.3c-0.5,0-0.9-0.1-1.1-0.4c-0.2-0.2-0.3-0.6-0.3-1.1v-15.4c0-0.5,0.1-0.8,0.4-1.1c0.3-0.3,0.6-0.4,1-0.4
			c0.3,0,0.5,0.1,0.7,0.2c0.2,0.2,0.3,0.4,0.4,0.6c0.1,0.3,0.2,0.6,0.2,0.9c0,0.3,0.1,0.7,0.1,1.1v0.1c1.1-0.8,2.2-1.5,3.4-2.1
			c1.2-0.6,2.5-0.9,3.9-0.9c1.2,0,2.1,0.2,2.9,0.6c0.8,0.4,1.4,0.9,1.8,1.5c0.5,0.7,0.8,1.4,1,2.3c0.2,0.9,0.3,1.8,0.3,2.8v9.6
			c0,0.4-0.1,0.8-0.4,1c-0.3,0.3-0.6,0.4-1,0.4c-0.9,0-1.4-0.5-1.4-1.4V322c0-0.6-0.1-1.2-0.2-1.7c-0.1-0.5-0.3-1-0.6-1.4
			c-0.3-0.4-0.6-0.7-1-0.9c-0.4-0.2-1-0.3-1.6-0.3s-1.3,0.1-1.9,0.4c-0.6,0.2-1.3,0.5-1.9,0.9c-0.6,0.4-1.2,0.8-1.8,1.2
			c-0.6,0.5-1.1,0.9-1.5,1.4v10.3c0,0.4-0.1,0.8-0.4,1C1433,333.2,1432.7,333.3,1432.3,333.3z"/>
		<path d="M1456.8,330.1c0.4,0.1,0.8,0.2,1.1,0.3c0.4,0.1,0.8,0.1,1.2,0.1c0.3,0,0.6,0,0.9-0.1c0.3-0.1,0.6-0.2,0.8-0.3
			c0.2-0.1,0.4-0.3,0.6-0.6c0.1-0.2,0.2-0.5,0.2-0.8c0-0.3-0.1-0.6-0.3-0.8c-0.2-0.2-0.4-0.4-0.7-0.6c-0.3-0.2-0.6-0.3-1-0.5
			c-0.4-0.1-0.7-0.3-1.1-0.4c-0.6-0.2-1.2-0.5-1.8-0.7c-0.6-0.3-1.1-0.6-1.6-0.9c-0.5-0.4-0.8-0.8-1.1-1.4c-0.3-0.5-0.4-1.2-0.4-2
			c0-1.1,0.2-2.1,0.7-2.9c0.4-0.8,1-1.5,1.7-2.1c0.7-0.6,1.5-1,2.5-1.3c0.9-0.3,1.9-0.4,2.9-0.4c0.2,0,0.6,0,1.1,0.1
			c0.5,0.1,1.1,0.2,1.6,0.4c0.6,0.2,1,0.4,1.5,0.7c0.4,0.3,0.6,0.7,0.6,1.1c0,0.4-0.1,0.7-0.4,1c-0.2,0.2-0.6,0.4-1,0.4
			c-0.1,0-0.3,0-0.5-0.1c-0.2-0.1-0.4-0.1-0.6-0.2h0c-0.4-0.2-0.8-0.3-1.3-0.5c-0.5-0.1-1-0.2-1.4-0.2c-0.6,0-1.2,0.1-1.8,0.3
			c-0.6,0.2-1.1,0.4-1.5,0.8c-0.4,0.3-0.8,0.7-1.1,1.2c-0.3,0.5-0.4,1-0.4,1.7c0,0.4,0.1,0.7,0.3,1s0.4,0.5,0.8,0.7
			c0.3,0.2,0.7,0.4,1.1,0.6c0.4,0.2,0.8,0.3,1.2,0.5c0.6,0.2,1.1,0.4,1.7,0.7c0.6,0.2,1.1,0.5,1.5,0.8s0.8,0.7,1.1,1.2
			c0.3,0.5,0.4,1.1,0.4,1.8c0,0.8-0.1,1.5-0.4,2.1c-0.3,0.6-0.7,1.1-1.2,1.5c-0.5,0.4-1.1,0.7-1.7,0.9c-0.6,0.2-1.3,0.3-2,0.3
			c-0.2,0-0.6,0-1.1-0.1c-0.5-0.1-1-0.2-1.5-0.4c-0.5-0.2-1-0.4-1.4-0.7c-0.4-0.3-0.6-0.6-0.6-1c0-0.3,0-0.6,0.1-0.8
			c0.1-0.2,0.2-0.3,0.4-0.4c0.2-0.1,0.3-0.1,0.5-0.1c0.2,0,0.4,0,0.6,0c0,0,0.1,0,0.3,0.1C1456.6,330,1456.7,330,1456.8,330.1
			L1456.8,330.1z"/>
		<path d="M1474.5,309.5h8.4c0.3,0,0.6,0.1,0.8,0.3c0.2,0.2,0.4,0.5,0.4,0.8c0,0.4-0.1,0.7-0.4,0.9c-0.2,0.1-0.5,0.2-0.8,0.2h-8.4
			v20.4c0,0.8-0.4,1.2-1.2,1.2c-0.4,0-0.7-0.1-0.9-0.3c-0.2-0.2-0.2-0.5-0.2-0.8v-20.3h0c-0.2,0-0.3,0-0.6,0c-0.2,0-0.4,0-0.6,0
			c-0.3,0-0.6,0-0.9-0.1c-0.3,0-0.5-0.1-0.8-0.2c-0.2-0.1-0.4-0.2-0.5-0.4c-0.1-0.2-0.2-0.4-0.2-0.6c0-0.2,0.1-0.4,0.2-0.6
			c0.1-0.1,0.3-0.3,0.5-0.3c0.2-0.1,0.5-0.1,0.8-0.2c0.3,0,0.6,0,0.9,0c0.2,0,0.4,0,0.6,0c0.2,0,0.4,0,0.6,0c0-1,0-2.1,0-3.1
			c0-1,0-2,0-3.1c0-0.9,0-1.7,0-2.6c0-0.8,0-1.7,0-2.6v-5.1c0-1,0.1-2,0.3-2.9c0.2-0.9,0.5-1.8,1-2.5c0.5-0.7,1.1-1.3,1.9-1.7
			c0.8-0.4,1.8-0.6,3-0.6c0.9,0,1.7,0.1,2.4,0.4c0.8,0.3,1.4,0.6,2,1.1c0.6,0.5,1,1.1,1.4,1.8c0.3,0.7,0.5,1.5,0.5,2.4l0,0.1
			c0,0.3-0.1,0.6-0.2,0.9c-0.1,0.3-0.5,0.4-0.9,0.4c-0.4,0-0.7-0.1-0.8-0.4c-0.1-0.3-0.2-0.5-0.3-0.8c-0.1-0.5-0.3-1-0.5-1.4
			c-0.2-0.5-0.5-0.8-0.8-1.2c-0.3-0.3-0.7-0.6-1.1-0.8c-0.4-0.2-1-0.3-1.6-0.3c-0.8,0-1.5,0.2-2,0.5c-0.5,0.3-0.9,0.7-1.2,1.2
			c-0.3,0.5-0.5,1.1-0.6,1.8c-0.1,0.7-0.1,1.4-0.1,2.1L1474.5,309.5z"/>
		<path d="M1495.2,314.7c1.3,0,2.5,0.2,3.7,0.7s2.1,1.1,2.9,2c0.8,0.8,1.5,1.8,2,3c0.5,1.1,0.7,2.3,0.7,3.7c0,1.3-0.2,2.5-0.7,3.6
			c-0.5,1.1-1.1,2.1-2,3s-1.8,1.5-3,2c-1.1,0.5-2.3,0.7-3.6,0.7c-1.3,0-2.5-0.2-3.6-0.7c-1.1-0.5-2.1-1.2-3-2c-0.8-0.8-1.5-1.8-2-3
			c-0.5-1.1-0.7-2.3-0.7-3.6c0-1.3,0.2-2.5,0.7-3.6c0.5-1.1,1.1-2.1,2-3c0.8-0.8,1.8-1.5,3-2C1492.7,315,1493.9,314.7,1495.2,314.7z
			 M1495.2,317.5c-0.9,0-1.8,0.2-2.6,0.5c-0.8,0.3-1.5,0.8-2.1,1.4c-0.6,0.6-1.1,1.3-1.4,2.1c-0.3,0.8-0.5,1.7-0.5,2.6
			c0,0.9,0.2,1.7,0.5,2.5c0.3,0.8,0.8,1.5,1.4,2.1c0.6,0.6,1.3,1.1,2.1,1.4c0.8,0.3,1.7,0.5,2.5,0.5c0.9,0,1.8-0.2,2.6-0.5
			c0.8-0.3,1.5-0.8,2.1-1.4c0.6-0.6,1-1.3,1.4-2.1c0.3-0.8,0.5-1.6,0.5-2.6c0-0.9-0.2-1.8-0.5-2.6c-0.3-0.8-0.8-1.5-1.4-2.1
			c-0.6-0.6-1.3-1-2.1-1.4C1496.9,317.6,1496.1,317.5,1495.2,317.5z"/>
		<path d="M1511.7,317.8c-0.2,0-0.5,0-0.7,0.1c-0.3,0.1-0.5,0.2-0.8,0.4c-0.3,0.1-0.5,0.3-0.8,0.5c-0.2,0.2-0.5,0.3-0.7,0.5
			c-0.3,0.2-0.6,0.4-0.9,0.6c-0.3,0.1-0.5,0.2-0.7,0.2c-0.3,0-0.6-0.1-0.8-0.3c-0.2-0.2-0.4-0.4-0.5-0.6c0-0.4,0.2-0.9,0.7-1.3
			c0.5-0.5,1.1-0.9,1.7-1.3c0.7-0.4,1.3-0.7,2-1c0.7-0.3,1.2-0.4,1.5-0.4c0.7,0,1.3,0.1,1.8,0.4c0.5,0.2,0.8,0.6,1.1,0.9
			c0.3,0.4,0.5,0.8,0.6,1.3c0.1,0.5,0.2,1,0.2,1.5c0.5-0.5,1.1-1,1.6-1.5c0.6-0.5,1.2-0.9,1.8-1.4c0.6-0.4,1.3-0.7,1.9-1
			c0.7-0.2,1.3-0.4,2-0.4c1.5,0,2.6,0.5,3.5,1.4c0.9,0.9,1.3,2.1,1.3,3.5c0,0.5-0.1,1.1-0.3,1.7c-0.2,0.6-0.5,1.2-0.8,1.7
			c-0.4,0.5-0.8,1-1.3,1.4c-0.5,0.4-1.1,0.5-1.7,0.5c-0.4,0-0.7-0.1-0.9-0.4c-0.2-0.2-0.3-0.5-0.3-0.9c0-0.3,0.1-0.6,0.2-0.7
			s0.3-0.2,0.5-0.4l0.3-0.2l0,0c0.2-0.1,0.3-0.2,0.5-0.4s0.4-0.3,0.5-0.5c0.2-0.2,0.3-0.4,0.4-0.7c0.1-0.3,0.2-0.6,0.2-1
			c0-0.8-0.2-1.3-0.6-1.8c-0.4-0.4-1-0.7-1.7-0.7c-0.5,0-1.1,0.2-1.8,0.5c-0.7,0.4-1.3,0.8-2,1.4c-0.7,0.5-1.3,1.1-1.9,1.7
			c-0.6,0.6-1.1,1.1-1.5,1.5v9.1c0,0.4-0.1,0.8-0.4,1c-0.3,0.3-0.6,0.4-1,0.4c-0.6,0-1-0.1-1.1-0.4c-0.1-0.3-0.2-0.6-0.2-1v-11.5
			c0-0.3,0-0.6,0-0.9c0-0.3,0-0.6-0.1-0.8s-0.2-0.5-0.3-0.6C1512.2,317.8,1512,317.8,1511.7,317.8z"/>
		<path d="M1535,317.9c0,0.1,0,0.2,0,0.2c0,0.1,0,0.1,0,0.2c0.5-0.4,1-0.8,1.6-1.2c0.6-0.4,1.2-0.7,1.8-1.1c0.6-0.3,1.2-0.6,1.8-0.8
			c0.6-0.2,1.2-0.3,1.8-0.3c1.3,0,2.4,0.2,3.2,0.7c0.8,0.5,1.3,1.2,1.6,2.3c0.5-0.4,1.1-0.8,1.7-1.1c0.6-0.4,1.2-0.7,1.9-1
			c0.6-0.3,1.3-0.5,1.9-0.7c0.7-0.2,1.3-0.3,2-0.3c0.9,0,1.6,0.1,2.2,0.3c0.6,0.2,1.1,0.5,1.4,1c0.4,0.4,0.6,1,0.7,1.6
			c0.1,0.6,0.2,1.4,0.2,2.2v11.8c0,0.4-0.1,0.8-0.4,1c-0.3,0.3-0.6,0.4-1,0.4c-0.6,0-0.9-0.1-1.1-0.4c-0.2-0.2-0.2-0.6-0.2-1.1
			v-10.5c0-0.4,0-0.9,0-1.3c0-0.4-0.1-0.8-0.2-1.2c-0.1-0.4-0.3-0.6-0.6-0.9s-0.6-0.3-1.1-0.3c-0.6,0-1.2,0.1-1.8,0.3
			c-0.7,0.2-1.3,0.5-1.9,0.9c-0.6,0.3-1.3,0.7-1.9,1.2c-0.6,0.4-1.2,0.8-1.6,1.2v10.6c0,0.4-0.1,0.8-0.4,1c-0.3,0.3-0.6,0.4-1,0.4
			c-0.6,0-0.9-0.1-1.1-0.4c-0.2-0.2-0.2-0.6-0.2-1.1v-9.8c0-0.5,0-1,0-1.5c0-0.5-0.1-1-0.2-1.4c-0.1-0.4-0.3-0.8-0.6-1
			c-0.3-0.3-0.7-0.4-1.2-0.4c-0.5,0-1.1,0.1-1.7,0.4c-0.6,0.3-1.3,0.6-1.9,1c-0.6,0.4-1.2,0.9-1.8,1.3c-0.6,0.5-1.1,0.9-1.5,1.3
			v10.1c0,0.4-0.1,0.8-0.4,1c-0.3,0.3-0.6,0.4-1,0.4c-0.6,0-0.9-0.1-1.1-0.4c-0.2-0.2-0.2-0.6-0.2-1.1v-15.4c0-0.5,0.1-0.8,0.4-1.1
			c0.3-0.3,0.6-0.4,1-0.4c0.3,0,0.5,0.1,0.7,0.2c0.2,0.2,0.3,0.4,0.4,0.6c0.1,0.3,0.2,0.6,0.2,0.9C1535,317.2,1535,317.5,1535,317.9
			z"/>
		<path d="M1584.8,331.6c0,0.4-0.1,0.8-0.3,1c-0.2,0.3-0.5,0.4-1.1,0.4c-0.4,0-0.8-0.1-1-0.4c-0.3-0.3-0.4-0.6-0.4-1v-7.3
			c-0.6,1.1-1.3,2.2-2.1,3.3c-0.8,1.1-1.7,2-2.7,2.9c-1,0.9-2,1.5-3.2,2.1c-1.1,0.5-2.3,0.8-3.6,0.8c-1.8,0-3.2-0.5-4.3-1.5
			c-1.1-1-1.6-2.4-1.6-4.3c0-1.3,0.3-2.5,0.8-3.7c0.5-1.2,1.3-2.2,2.2-3.2c0.9-1,1.9-1.8,3.1-2.6c1.2-0.8,2.4-1.4,3.7-1.9
			c1.3-0.5,2.6-0.9,3.8-1.2c1.3-0.3,2.5-0.4,3.6-0.4h0.3c0.3,0,0.5,0,0.9,0c0.3,0,0.6,0.1,0.9,0.2c0.3,0.1,0.5,0.3,0.7,0.5
			c0.2,0.2,0.3,0.6,0.3,1V331.6z M1570.5,330.6c1,0,1.9-0.2,2.8-0.6c0.9-0.4,1.7-0.9,2.5-1.6c0.8-0.7,1.5-1.5,2.1-2.3
			c0.6-0.9,1.2-1.8,1.7-2.8c0.5-1,0.9-2,1.3-3c0.4-1,0.7-2,0.9-2.9c-0.9,0-1.9,0.1-3,0.3c-1.1,0.2-2.2,0.5-3.2,0.9
			c-1.1,0.4-2.1,0.9-3.1,1.5c-1,0.6-1.9,1.2-2.6,2c-0.8,0.7-1.4,1.6-1.8,2.5c-0.5,0.9-0.7,1.9-0.7,3c0,1,0.3,1.7,0.9,2.2
			C1568.8,330.4,1569.5,330.6,1570.5,330.6z"/>
		<path d="M1597.4,325.9c0,0.7,0,1.3,0.1,1.9c0.1,0.6,0.2,1.1,0.5,1.5c0.3,0.4,0.6,0.7,1.1,1c0.4,0.2,1,0.3,1.8,0.3
			c0.5,0,1-0.1,1.4-0.2c0.4-0.1,0.8-0.3,1.2-0.6s0.7-0.5,0.9-0.7c0.3-0.2,0.5-0.5,0.7-0.7c0.2-0.2,0.4-0.4,0.7-0.6
			c0.2-0.2,0.5-0.3,0.7-0.3c0.3,0,0.6,0.1,0.9,0.4c0.3,0.2,0.4,0.6,0.4,1c0,0.2,0,0.3-0.1,0.5c-0.1,0.2-0.2,0.4-0.4,0.6l0-0.1
			c-0.7,1.1-1.7,1.9-2.8,2.5c-1.1,0.6-2.3,0.9-3.6,0.9c-1.3,0-2.3-0.2-3.1-0.5c-0.8-0.3-1.5-0.8-1.9-1.5c-0.5-0.6-0.8-1.4-1-2.3
			c-0.2-0.9-0.2-1.9-0.2-3.1l0.1-8.1h-4.4c-0.4,0-0.8-0.1-1-0.4s-0.4-0.6-0.4-1c0-0.6,0.1-0.9,0.4-1.1s0.6-0.2,1-0.2h4.4l0.4-12.2
			c0-0.3,0.2-0.7,0.4-1c0.2-0.3,0.6-0.5,0.9-0.5c0.5,0,0.9,0.1,1.1,0.4c0.2,0.3,0.3,0.6,0.3,1.1l-0.3,12.2h6.8c0.4,0,0.7,0.1,1,0.4
			c0.3,0.3,0.4,0.6,0.4,1c0,0.5-0.1,0.9-0.4,1c-0.3,0.2-0.6,0.3-1,0.3h-6.9c0,0.2,0,0.3,0,0.4s0,0.3,0,0.4c0,0.2,0,0.4,0,0.6
			c0,0.3,0,0.5,0,0.6c0,1-0.1,2-0.1,3C1597.4,323.9,1597.4,324.9,1597.4,325.9z"/>
		<path d="M1614.9,302.4c0.6,0,1.1,0.2,1.5,0.7c0.4,0.4,0.7,1,0.7,1.5c0,0.6-0.2,1.1-0.7,1.5c-0.4,0.4-0.9,0.7-1.5,0.7
			c-0.6,0-1.1-0.2-1.5-0.7c-0.4-0.4-0.7-0.9-0.7-1.5c0-0.3,0.1-0.6,0.2-0.8c0.1-0.3,0.3-0.5,0.5-0.7c0.2-0.2,0.4-0.4,0.7-0.5
			C1614.3,302.4,1614.6,302.4,1614.9,302.4z M1616.2,331.9c0,0.4-0.1,0.7-0.4,1s-0.6,0.4-1,0.4c-0.5,0-0.9-0.1-1.1-0.4
			c-0.2-0.3-0.3-0.6-0.3-1v-15.4c0-0.4,0.1-0.7,0.4-1c0.3-0.3,0.6-0.4,1-0.4c0.5,0,0.9,0.2,1.1,0.5s0.3,0.7,0.3,1V331.9z"/>
		<path d="M1631.1,314.7c1.3,0,2.5,0.2,3.7,0.7s2.1,1.1,2.9,2c0.8,0.8,1.5,1.8,2,3c0.5,1.1,0.7,2.3,0.7,3.7c0,1.3-0.2,2.5-0.7,3.6
			c-0.5,1.1-1.1,2.1-2,3s-1.8,1.5-3,2c-1.1,0.5-2.3,0.7-3.6,0.7c-1.3,0-2.5-0.2-3.6-0.7c-1.1-0.5-2.1-1.2-3-2c-0.8-0.8-1.5-1.8-2-3
			c-0.5-1.1-0.7-2.3-0.7-3.6c0-1.3,0.2-2.5,0.7-3.6c0.5-1.1,1.1-2.1,2-3c0.8-0.8,1.8-1.5,3-2C1628.6,315,1629.8,314.7,1631.1,314.7z
			 M1631.1,317.5c-0.9,0-1.8,0.2-2.6,0.5c-0.8,0.3-1.5,0.8-2.1,1.4c-0.6,0.6-1.1,1.3-1.4,2.1c-0.3,0.8-0.5,1.7-0.5,2.6
			c0,0.9,0.2,1.7,0.5,2.5c0.3,0.8,0.8,1.5,1.4,2.1c0.6,0.6,1.3,1.1,2.1,1.4c0.8,0.3,1.7,0.5,2.5,0.5c0.9,0,1.8-0.2,2.6-0.5
			c0.8-0.3,1.5-0.8,2.1-1.4c0.6-0.6,1-1.3,1.4-2.1c0.3-0.8,0.5-1.6,0.5-2.6c0-0.9-0.2-1.8-0.5-2.6c-0.3-0.8-0.8-1.5-1.4-2.1
			c-0.6-0.6-1.3-1-2.1-1.4C1632.8,317.6,1632,317.5,1631.1,317.5z"/>
		<path d="M1647.3,333.3c-0.5,0-0.9-0.1-1.1-0.4c-0.2-0.2-0.3-0.6-0.3-1.1v-15.4c0-0.5,0.1-0.8,0.4-1.1c0.3-0.3,0.6-0.4,1-0.4
			c0.3,0,0.5,0.1,0.7,0.2c0.2,0.2,0.3,0.4,0.4,0.6c0.1,0.3,0.2,0.6,0.2,0.9c0,0.3,0.1,0.7,0.1,1.1v0.1c1.1-0.8,2.2-1.5,3.4-2.1
			c1.2-0.6,2.5-0.9,3.9-0.9c1.2,0,2.1,0.2,2.9,0.6c0.8,0.4,1.4,0.9,1.8,1.5c0.5,0.7,0.8,1.4,1,2.3c0.2,0.9,0.3,1.8,0.3,2.8v9.6
			c0,0.4-0.1,0.8-0.4,1c-0.3,0.3-0.6,0.4-1,0.4c-0.9,0-1.4-0.5-1.4-1.4V322c0-0.6-0.1-1.2-0.2-1.7c-0.1-0.5-0.3-1-0.6-1.4
			c-0.3-0.4-0.6-0.7-1-0.9c-0.4-0.2-1-0.3-1.6-0.3c-0.7,0-1.3,0.1-1.9,0.4c-0.6,0.2-1.3,0.5-1.9,0.9c-0.6,0.4-1.2,0.8-1.8,1.2
			c-0.6,0.5-1.1,0.9-1.5,1.4v10.3c0,0.4-0.1,0.8-0.4,1C1648,333.2,1647.7,333.3,1647.3,333.3z"/>
	</g>
	<path class="st3" d="M902.9,333c-149.4,0.1-298.8,0.2-448.1,0.4"/>
</g>
</svg>
